<svg width="16" height="16" viewBox="0 0 16 16" fill="none" xmlns="http://www.w3.org/2000/svg">
<path d="M12.9602 13.6667C11.7038 13.6667 10.4417 13.3746 9.17367 12.7903C7.90578 12.2061 6.74083 11.382 5.67883 10.318C4.61694 9.25389 3.79389 8.08889 3.20967 6.823C2.62544 5.55722 2.33333 4.29617 2.33333 3.03983C2.33333 2.83794 2.4 2.66972 2.53333 2.53517C2.66667 2.40061 2.83333 2.33333 3.03333 2.33333H5.20767C5.376 2.33333 5.5245 2.38828 5.65317 2.49817C5.78183 2.60794 5.86367 2.74361 5.89867 2.90517L6.28083 4.86667C6.30728 5.04867 6.30172 5.20506 6.26417 5.33583C6.2265 5.46661 6.15894 5.57644 6.0615 5.66533L4.52183 7.16417C4.76961 7.61794 5.05272 8.04722 5.37117 8.452C5.6895 8.85667 6.03417 9.24317 6.40517 9.6115C6.77094 9.97739 7.15983 10.3172 7.57183 10.6308C7.98383 10.9445 8.42872 11.2364 8.9065 11.5065L10.4025 9.9975C10.5068 9.88894 10.6332 9.81283 10.7815 9.76917C10.9297 9.72561 11.0838 9.71494 11.2437 9.73717L13.0948 10.1142C13.2632 10.1586 13.4006 10.2445 13.507 10.3718C13.6134 10.4992 13.6667 10.6436 13.6667 10.8052V12.9667C13.6667 13.1667 13.5994 13.3333 13.4648 13.4667C13.3303 13.6 13.1621 13.6667 12.9602 13.6667ZM4.04867 6.218L5.2385 5.0795C5.25983 5.06239 5.27372 5.03889 5.28017 5.009C5.28661 4.97911 5.28556 4.95133 5.277 4.92567L4.98717 3.43583C4.97861 3.40172 4.96367 3.37611 4.94233 3.359C4.921 3.34189 4.89322 3.33333 4.859 3.33333H3.43333C3.40767 3.33333 3.38628 3.34189 3.36917 3.359C3.35217 3.37611 3.34367 3.3975 3.34367 3.42317C3.37778 3.87872 3.45233 4.3415 3.56733 4.8115C3.68222 5.28161 3.84267 5.75044 4.04867 6.218ZM9.84867 11.9795C10.2906 12.1855 10.7514 12.343 11.2313 12.452C11.7113 12.5609 12.1598 12.6256 12.5768 12.6462C12.6025 12.6462 12.6239 12.6376 12.641 12.6205C12.6581 12.6034 12.6667 12.582 12.6667 12.5563V11.1538C12.6667 11.1196 12.6581 11.0918 12.641 11.0705C12.6239 11.0492 12.5983 11.0342 12.5642 11.0257L11.1642 10.741C11.1385 10.7324 11.1161 10.7314 11.0968 10.7378C11.0776 10.7443 11.0573 10.7582 11.0358 10.7795L9.84867 11.9795Z" fill="#374151"/>
</svg>
